<svg xmlns="http://www.w3.org/2000/svg" width="747" height="235" fill="none" viewBox="0 0 747 235"><g clipPath="url(#clip0_112_35)"><path fill="#FF4052" d="M183.67 122.5C183.67 143.1 181.37 159.54 176.76 171.84C172.15 184.14 165.72 192.89 157.47 198.11C149.21 203.32 139.22 205.93 127.49 205.93C112.72 205.93 100.07 202.43 89.56 195.44C79.74 188.91 72.57 178.76 68.06 164.98C67.51 163.3 65.78 162.29 64.05 162.66L63.51 162.77C61.74 163.15 60.55 164.82 60.79 166.62L66.85 212.09C66.87 212.24 66.88 212.4 66.88 212.55V226.27C66.88 231.22 64.22 234.48 58.67 234.48H8.21C3.73 234.48 0 231.31 0 226.27V49.76C0 44.75 3.94 41.55 8.21 41.55H56.9C61.51 41.55 65.25 44.58 64.48 50.4L59.45 91.45C59.22 93.29 60.49 94.98 62.31 95.29L62.69 95.35C64.5 95.66 66.24 94.49 66.65 92.7C69.69 79.28 73.63 68.63 78.47 60.77C83.68 52.3 90.09 46.3 97.7 42.78C105.3 39.26 114.62 37.5 125.66 37.5C164.42 37.5 183.75 65.83 183.67 122.49V122.5ZM110.67 152.22C113.97 146.83 115.62 138.27 115.62 126.54C115.62 114.81 114.01 107.03 110.8 102.16C107.58 97.29 102.33 94.86 95.03 94.86C90.34 94.86 85.91 96.06 81.73 98.44C77.56 100.83 74.12 104.48 71.43 109.39C68.74 114.3 67.21 120.36 66.87 127.57V146.59C66.87 147.75 67.45 148.83 68.42 149.48C74.31 153.43 79.12 156.19 82.84 157.75C86.88 159.44 91.16 160.29 95.68 160.29C102.37 160.29 107.37 157.6 110.67 152.21V152.22Z"/><path fill="#FF4052" d="M261.25 7.52009V193.67C261.25 198.26 257.65 201.88 253.04 201.88H203.25C198.78 201.88 195.04 198.4 195.04 193.67V17.5501C195.04 13.1401 197.72 9.61009 202.24 8.66009L252.71 0.110092C257.67 -0.689908 261.25 2.94009 261.25 7.51009V7.52009Z"/><path fill="#FF4052" d="M315.24 196.93C302.2 190.76 292.47 181.87 286.04 170.27C279.61 158.67 276.39 144.7 276.39 128.36V49.76C276.39 45.07 279.84 41.55 284.6 41.55H335.04C339.83 41.55 343.25 45.32 343.25 49.76V126.93C343.25 134.58 344.99 139.83 348.46 142.7C351.93 145.57 357.06 147 363.84 147C370.62 147 375.77 145.5 379.29 142.5C382.81 139.5 384.57 134.31 384.57 126.92V49.76C384.57 45.25 387.81 41.55 392.78 41.55H443.22C447.9 41.55 451.43 44.5301 451.43 48.8101V128.36C451.43 144.7 448.21 158.67 441.78 170.27C435.35 181.87 425.62 190.76 412.58 196.93C399.54 203.1 383.29 206.19 363.83 206.19C344.37 206.19 328.24 203.1 315.21 196.93H315.24Z"/><path fill="#FF4052" d="M733.25 57.32C742.42 70.53 747 91.56 747 120.41V193.67C747 198.21 743.65 201.88 738.79 201.88H688.21C683.67 201.88 680 198.94 680 193.67V124.2C680 113.86 678.48 106.47 675.44 102.04C672.4 97.61 667.88 95.39 661.88 95.39C654.49 95.39 649.06 97.89 645.59 102.89C642.11 107.89 640.29 115.77 640.11 126.55V193.68C640.11 198.02 636.94 201.89 631.9 201.89H581.59C576.97 201.89 573.38 198.44 573.38 193.68V124.2C573.38 113.95 571.9 106.58 568.95 102.1C565.99 97.63 561.48 95.39 555.39 95.39C548.87 95.39 543.61 97.98 539.62 103.15C535.62 108.32 533.58 115.99 533.49 126.16V193.68C533.49 198.48 530.32 201.89 525.28 201.89H474.83C470.38 201.89 466.62 198.66 466.62 193.68V49.76C466.62 45.14 469.83 41.55 474.83 41.55H523.56C528.48 41.55 531.93 44.09 531.39 48.66L527.04 87.84C526.85 89.55 527.95 91.15 529.61 91.58C531.55 92.08 533.51 90.84 533.89 88.87C536.26 76.52 539.43 66.72 543.39 59.47C547.73 51.52 553.3 45.87 560.08 42.52C566.86 39.18 575.46 37.5 585.89 37.5C598.58 37.5 608.98 41.89 617.11 50.67C624.77 58.95 629.36 71.67 630.88 88.83C631.04 90.62 632.54 91.99 634.33 91.99H635.04C636.68 91.99 638.11 90.84 638.44 89.23C641 76.56 644.42 66.55 648.72 59.21C653.32 51.35 659.19 45.76 666.32 42.46C673.45 39.16 682.53 37.51 693.56 37.51C710.85 37.51 724.08 44.12 733.25 57.32V57.32Z"/></g><defs><clipPath id="clip0_112_35"><rect width="747" height="234.48" fill="#fff"/></clipPath></defs></svg>